<svg version="1.1" xmlns="http://www.w3.org/2000/svg" viewBox="0 0 1024 544">
<path fill="#2563eb" opacity="1.000000" stroke="none" d="M512.994019,379.538605 C489.528748,370.129913 469.034180,356.631714 450.799561,339.705902 C417.407196,308.710358 397.558228,270.305176 388.609497,225.886780 C383.815491,202.091095 381.746460,178.100494 382.883301,153.888153 C383.366302,143.601151 384.850800,133.359619 385.938995,123.103668 C386.210968,120.540512 387.365936,118.942123 390.340118,118.676048 C432.412262,114.912231 470.937347,100.281677 507.542999,79.985802 C511.541473,77.768875 514.574402,77.797516 518.551697,80.006172 C547.681519,96.182617 578.128052,109.015648 611.089478,115.097786 C618.936035,116.545654 626.843262,117.791496 634.777222,118.582329 C638.400452,118.943481 639.713196,120.517647 640.171631,123.723846 C643.387878,146.217865 644.393860,168.761017 642.443726,191.448181 C640.365601,215.623566 635.678711,239.199707 627.265991,261.983948 C625.595398,266.508362 623.599609,270.914032 621.693604,275.348602 C621.454285,275.905457 620.845520,276.303528 620.352539,276.834808 C614.979004,271.754181 609.662109,266.826050 604.481628,261.758301 C603.211060,260.515289 604.159607,258.912872 604.713501,257.535034 C617.543152,225.619003 621.564392,192.286743 620.623840,158.172791 C620.495483,153.515793 619.831665,148.874374 619.676758,144.217056 C619.561890,140.761154 617.934143,139.076874 614.629700,138.596176 C592.417053,135.364929 571.182556,128.663788 550.407410,120.369164 C539.102722,115.855682 528.102173,110.663933 517.445923,104.795456 C514.350403,103.090752 511.843475,102.769997 508.733459,104.671448 C498.949036,110.653717 487.664764,114.004852 478.776001,121.568581 C460.626465,137.012619 452.806580,156.599426 456.006409,180.240067 C457.700104,192.753021 455.789581,204.101410 447.671082,214.072174 C445.567993,216.655106 443.448608,219.235214 441.517761,221.945602 C438.154633,226.666550 438.398071,227.619232 443.464233,230.288177 C446.151550,231.703918 448.718231,233.257706 450.374298,235.876892 C452.376373,239.043365 452.757141,242.535690 451.258026,245.925690 C449.377991,250.177048 451.432526,251.940567 455.032043,253.405121 C458.317200,254.741760 462.113342,255.028000 465.104950,257.807587 C462.500763,261.448303 457.438263,260.668762 454.457672,264.702362 C460.382233,270.076019 460.948608,276.968292 459.565796,284.611908 C458.828705,288.686157 462.707367,292.166260 467.393616,292.732880 C472.942993,293.403839 478.357269,292.319214 483.725037,291.122620 C490.993011,289.502350 498.214905,289.071960 505.444794,291.279327 C520.598206,295.905823 528.988403,311.351807 525.815613,328.939758 C525.344116,331.553223 524.593201,334.119202 523.890442,336.684937 C523.786682,337.063751 523.231445,337.318970 522.387756,338.079987 C521.775635,333.306061 521.583984,328.907104 520.598877,324.693665 C518.031616,313.712982 513.576965,303.988098 501.292511,300.894928 C494.837189,299.269501 488.399567,300.551270 481.992859,301.708618 C476.269623,302.742493 470.554993,304.011017 464.672577,302.725952 C453.590698,300.304993 448.053864,292.848846 449.989441,281.584167 C450.754333,277.132629 449.723389,274.157867 446.534485,271.483368 C446.407196,271.376617 446.308350,271.233917 446.175537,271.136078 C441.564178,267.739349 445.986206,262.042633 443.442780,258.820129 C440.312744,254.854324 438.621490,251.334702 440.753204,246.612732 C442.478119,242.791901 441.297272,240.580856 437.570831,238.686646 C426.389709,233.003098 425.110138,226.449539 432.824341,216.315918 C437.653381,209.972260 443.038177,204.027267 445.653198,196.213364 C447.395599,191.006790 446.216675,185.901672 445.503113,180.882217 C442.878204,162.418076 447.638275,145.909576 457.860687,130.674500 C458.395569,129.877380 459.264923,129.181564 458.924927,127.929451 C457.102478,126.563606 455.417358,127.984306 453.847290,128.497787 C440.049713,133.010071 426.056702,136.662659 411.627991,138.463638 C408.033844,138.912277 406.561218,140.796906 406.291351,144.390076 C403.230042,185.151459 407.377258,224.920654 423.477386,262.816345 C435.509644,291.137177 454.151154,314.560150 478.442596,333.471893 C488.069000,340.966370 498.289978,347.496063 509.139404,353.098602 C512.186218,354.671875 514.530151,354.471008 517.482300,352.911865 C544.460083,338.664429 567.322144,319.714417 584.844727,294.572327 C585.506104,293.623352 586.078979,292.560577 588.499939,292.127502 C592.646667,296.414307 597.293701,301.142792 601.847839,305.959106 C604.044739,308.282440 601.868225,309.973206 600.643188,311.579590 C587.934082,328.244812 573.248352,342.926575 556.304016,355.292480 C542.939209,365.046051 528.811707,373.475006 512.994019,379.538605 z"/>
<path fill="#2563eb" opacity="1.000000" stroke="none" d="M552.497925,150.323822 C590.414551,167.160065 602.987793,210.212067 580.191833,244.094147 C577.211731,248.523621 579.413635,254.011627 584.817139,254.318115 C588.970093,254.553711 591.591064,256.532501 594.212585,259.191864 C600.881287,265.956726 607.462769,272.818726 614.377563,279.324799 C617.541077,282.301361 617.818237,284.851898 615.597778,288.422058 C612.723022,293.044067 610.583984,298.136597 606.988831,302.056030 C604.696289,301.816803 603.738220,300.328827 602.594360,299.181824 C594.474670,291.040100 586.412048,282.841431 578.285583,274.706482 C575.591125,272.009186 573.558411,269.077576 574.014832,265.039795 C574.416138,261.489716 571.406982,260.220642 569.419983,258.441559 C567.267151,256.514038 565.803040,259.002075 564.297974,260.007721 C529.109131,283.520081 481.292145,266.176636 469.461639,225.575195 C459.213043,190.402710 481.268341,154.029816 517.264038,147.121964 C529.080872,144.854233 540.798340,145.928467 552.497925,150.323822 M478.425690,206.651230 C478.831665,214.159241 479.824341,221.580475 482.916321,228.500610 C492.690186,250.375259 516.852966,262.926331 538.981506,258.209290 C563.884827,252.900757 581.439575,229.413437 579.911438,206.233231 C578.650513,187.106277 569.707520,172.975357 553.187439,163.953552 C536.238464,154.697464 519.000854,155.061188 502.394775,165.206528 C487.297241,174.430237 480.270020,188.616196 478.425690,206.651230 z"/>
<path fill="#2563eb" opacity="1.000000" stroke="none" d="M498.261658,175.243561 C504.616608,169.584625 511.554108,165.788574 519.594849,164.176971 C521.052307,163.884842 522.560120,163.765030 524.048706,163.728622 C525.720032,163.687729 527.668213,163.647552 527.930847,165.877365 C528.207458,168.225555 526.521912,168.999252 524.502441,169.261139 C517.417175,170.180023 511.027985,172.718704 505.356079,177.149323 C496.613464,183.978607 491.863037,192.995819 490.294830,203.840363 C490.152191,204.826691 490.124725,205.844406 489.855438,206.794144 C489.465881,208.168015 488.636414,209.208557 487.017670,209.066818 C485.369720,208.922546 484.828491,207.743607 484.713959,206.296371 C484.393005,202.239456 485.294434,198.363312 486.439056,194.512421 C488.627167,187.150818 492.702484,180.951096 498.261658,175.243561 z"/>
</svg>
